<?xml version="1.0" encoding="iso-8859-1"?>
<!-- Generator: Adobe Illustrator 19.0.0, SVG Export Plug-In . SVG Version: 6.00 Build 0)  -->
<svg version="1.1" id="power" xmlns="http://www.w3.org/2000/svg" xmlns:xlink="http://www.w3.org/1999/xlink" x="0px" y="0px"
	 width="512.000000pt" height="512.000000pt" viewBox="0 0 512.000000 512.000000" style="enable-background:new 0 0 489.888 489.888;" xml:space="preserve" preserveAspectRatio="xMidYMid meet">
<g transform="translate(0.000000,512.000000) scale(0.100000,-0.100000)"
   fill="#000000" stroke="none">
<path d="M2460 4668 c-25 -14 -58 -44 -75 -67 l-30 -43 0 -937 0 -938 28 -40
c16 -23 50 -52 78 -68 96 -52 216 -21 279 72 l25 37 3 926 2 926 -22 43 c-13
24 -42 57 -66 74 -36 26 -54 32 -110 35 -56 3 -74 0 -112 -20z"/>
	<path d="M1259 4246 c-62 -16 -86 -35 -219 -172 -400 -411 -610 -927 -610
-1495 0 -344 68 -645 214 -944 111 -227 245 -413 427 -592 173 -170 320 -276
529 -383 330 -168 646 -238 1025 -227 552 16 1041 226 1430 614 355 353 570
802 625 1302 18 156 8 452 -19 596 -87 465 -290 847 -622 1170 -135 131 -166
149 -255 143 -116 -7 -194 -91 -194 -207 0 -79 24 -120 129 -218 438 -408 633
-1024 510 -1613 -123 -597 -564 -1092 -1137 -1280 -195 -63 -274 -74 -527 -75
-205 0 -242 3 -340 24 -606 130 -1086 555 -1280 1133 -148 444 -112 924 101
1338 89 173 178 293 323 439 68 68 130 139 138 159 8 19 14 58 14 87 0 139
-128 237 -262 201z"/>
</g>
</svg>
